<svg width="110" height="24" viewBox="0 0 110 24" fill="none" xmlns="http://www.w3.org/2000/svg">
<path d="M0.328188 23.2354V1.09888H4.18626V23.2354H0.328188ZM5.83068 13.2107V9.44749H7.56998C7.90729 9.44749 8.24461 9.40533 8.58193 9.321C8.91925 9.21559 9.19332 8.99422 9.40414 8.6569C9.63605 8.31959 9.752 7.81361 9.752 7.13897C9.752 6.48542 9.63605 6.00053 9.40414 5.68429C9.19332 5.34697 8.91925 5.12561 8.58193 5.0202C8.2657 4.91478 7.92838 4.86208 7.56998 4.86208H5.83068V1.09888H7.82297C9.25657 1.09888 10.395 1.35187 11.2383 1.85784C12.1027 2.34274 12.7246 3.049 13.1041 3.97662C13.4836 4.88316 13.6733 5.97944 13.6733 7.26547C13.6733 8.63582 13.4625 9.76373 13.0408 10.6492C12.6403 11.5136 12.0078 12.1566 11.1434 12.5782C10.3001 12.9999 9.19332 13.2107 7.82297 13.2107H5.83068ZM15.5223 23.2354V1.09888H19.3804V23.2354H15.5223ZM28.9008 23.3302V19.7568C29.1749 19.7568 29.4595 19.683 29.7546 19.5354C30.0498 19.3878 30.3238 19.1875 30.5768 18.9346C30.8509 18.6816 31.0723 18.397 31.2409 18.0807C31.4096 17.7434 31.4939 17.3745 31.4939 16.9739C31.4939 16.3625 31.3253 15.846 30.9879 15.4243C30.6506 14.9816 30.2079 14.6127 29.6598 14.3175C29.1327 14.0013 28.5846 13.7483 28.0153 13.5586C27.4672 13.3688 26.9612 13.2107 26.4974 13.0842C26.0336 12.9577 25.7174 12.8628 25.5487 12.7996C24.8951 12.5888 24.2732 12.2409 23.6829 11.756C23.0926 11.2711 22.6077 10.6492 22.2282 9.89022C21.8487 9.11017 21.659 8.20363 21.659 7.1706C21.659 6.05323 21.8593 5.11507 22.2598 4.3561C22.6815 3.57606 23.198 2.95413 23.8094 2.49031C24.4208 2.0265 25.0427 1.67864 25.6752 1.44674C26.3077 1.21483 26.8242 1.09888 27.2247 1.09888V4.70396C27.035 4.76721 26.8242 4.86208 26.5923 4.98857C26.3814 5.09398 26.1812 5.2521 25.9914 5.46293C25.8017 5.67375 25.6436 5.9162 25.5171 6.19027C25.3906 6.44326 25.3273 6.74895 25.3273 7.10735C25.3273 7.55008 25.4433 7.92956 25.6752 8.2458C25.9282 8.56203 26.255 8.8361 26.6555 9.06801C27.0772 9.27883 27.541 9.48966 28.047 9.70048C28.574 9.89022 29.1116 10.08 29.6598 10.2697C30.229 10.4594 30.7771 10.6914 31.3042 10.9654C31.9788 11.2817 32.6218 11.6928 33.2332 12.1987C33.8446 12.6836 34.3506 13.2845 34.7511 14.0013C35.1517 14.7181 35.352 15.593 35.352 16.626C35.352 17.8066 35.0568 18.9135 34.4665 19.9465C33.8762 20.9585 33.0856 21.7807 32.0948 22.4131C31.125 23.0245 30.0603 23.3302 28.9008 23.3302ZM27.2247 23.3302C26.3393 23.3302 25.5382 23.151 24.8214 22.7926C24.1256 22.4342 23.5142 21.981 22.9872 21.4328C22.4812 20.8847 22.0912 20.326 21.8171 19.7568C21.543 19.1875 21.406 18.6816 21.406 18.2388L24.8846 17.0055C24.9268 17.5326 25.0743 17.9964 25.3273 18.397C25.5803 18.7764 25.8755 19.0821 26.2128 19.314C26.5712 19.5249 26.9085 19.6724 27.2247 19.7568V23.3302ZM30.8931 6.91761C30.8509 6.4538 30.7139 6.07431 30.482 5.77916C30.2711 5.46293 30.0182 5.22048 29.723 5.05182C29.4489 4.86208 29.1749 4.74613 28.9008 4.70396V1.09888C29.7441 1.09888 30.503 1.26754 31.1777 1.60486C31.8523 1.92109 32.4321 2.34274 32.917 2.8698C33.4019 3.37577 33.7708 3.89229 34.0238 4.41935C34.2979 4.92533 34.4454 5.36806 34.4665 5.74754L30.8931 6.91761Z" fill="#FE7A15"/>
<path d="M37.5262 23.2354V21.0072H39.7543V23.2354H37.5262ZM50.7557 20.0561C49.4695 20.0561 48.4098 19.8116 47.5765 19.3225C46.7432 18.8152 46.2903 18.145 46.2178 17.3117L47.0059 17.0943C47.0059 17.7102 47.35 18.2265 48.0384 18.6431C48.7449 19.0417 49.6507 19.2409 50.7557 19.2409C51.897 19.2409 52.8208 19.0326 53.5273 18.616C54.2519 18.1993 54.6142 17.6649 54.6142 17.0128C54.6142 16.3969 54.3153 15.8987 53.7175 15.5183C53.1197 15.1379 52.3046 14.8027 51.272 14.5129L49.5873 14.0238C47.341 13.3716 45.6472 12.5474 44.506 11.551C43.3647 10.5547 42.7941 9.18701 42.7941 7.44795C42.7941 6.198 43.1383 5.09297 43.8266 4.13287C44.5331 3.15464 45.4842 2.38475 46.6798 1.82318C47.8935 1.2616 49.2612 0.980819 50.7829 0.980819C52.1596 0.980819 53.4005 1.20726 54.5056 1.66014C55.6287 2.0949 56.5526 2.71988 57.2772 3.53506C58.0199 4.35025 58.4909 5.3013 58.6902 6.38821L57.9022 6.60559C57.7391 5.64549 57.3315 4.80313 56.6794 4.07852C56.0272 3.35391 55.1939 2.79234 54.1795 2.39381C53.165 1.99527 52.0328 1.796 50.7829 1.796C49.4061 1.796 48.1743 2.04962 47.0874 2.55684C46.0186 3.04595 45.1672 3.71622 44.5331 4.56763C43.9172 5.41904 43.6093 6.39727 43.6093 7.50229C43.6093 8.98774 44.1255 10.1833 45.1581 11.0891C46.2088 11.9767 47.7576 12.7014 49.8047 13.2629L51.4894 13.7249C52.7393 14.0691 53.7085 14.4857 54.3969 14.9748C55.0852 15.4639 55.4294 16.1251 55.4294 16.9584C55.4294 17.8823 55.0037 18.6341 54.1523 19.2138C53.3009 19.7753 52.1687 20.0561 50.7557 20.0561ZM50.7557 21.8495C49.0529 21.8495 47.6218 21.4782 46.4624 20.7355C45.3211 19.9746 44.6509 18.9873 44.4516 17.7736L45.2668 17.5562C45.4117 18.6069 45.9733 19.4493 46.9515 20.0833C47.9478 20.7173 49.2159 21.0344 50.7557 21.0344C51.8788 21.0344 52.8661 20.8623 53.7175 20.5181C54.569 20.1739 55.2302 19.6938 55.7012 19.0779C56.1722 18.462 56.4077 17.7555 56.4077 16.9584C56.4077 15.8534 55.991 14.9839 55.1577 14.3498C54.3244 13.6977 53.1741 13.1724 51.7068 12.7738L50.0492 12.3119C48.292 11.8228 46.9425 11.2069 46.0005 10.4641C45.0585 9.72141 44.5875 8.73413 44.5875 7.50229C44.5875 6.57842 44.8501 5.76323 45.3755 5.05674C45.9189 4.35025 46.6617 3.79773 47.6037 3.3992C48.5457 2.98255 49.6054 2.77423 50.7829 2.77423C51.8879 2.77423 52.8752 2.94632 53.7447 3.29051C54.6324 3.61658 55.357 4.08758 55.9185 4.70349C56.4801 5.31941 56.8243 6.03496 56.9511 6.85015L56.1359 7.06753C56.0091 6.01685 55.4475 5.17449 54.4512 4.54046C53.473 3.90643 52.2502 3.58941 50.7829 3.58941C49.7503 3.58941 48.8264 3.7615 48.0113 4.10569C47.1961 4.43177 46.553 4.8937 46.082 5.49151C45.6291 6.07119 45.4027 6.74145 45.4027 7.50229C45.4027 8.53486 45.8103 9.35005 46.6254 9.94785C47.4587 10.5456 48.6634 11.071 50.2394 11.5239L51.8698 11.9858C53.5545 12.4568 54.8679 13.0818 55.8098 13.8607C56.7518 14.6216 57.2228 15.6541 57.2228 16.9584C57.2228 17.9185 56.9511 18.77 56.4077 19.5127C55.8642 20.2373 55.1034 20.8079 54.1251 21.2246C53.165 21.6412 52.0419 21.8495 50.7557 21.8495ZM50.7557 23.6429C49.3427 23.6429 48.0656 23.4256 46.9243 22.9908C45.8012 22.5379 44.8683 21.9129 44.1255 21.1159C43.4009 20.3007 42.9299 19.3406 42.7126 18.2356L43.5006 18.0182C43.6817 18.9964 44.0893 19.8478 44.7233 20.5724C45.3755 21.2789 46.2178 21.8314 47.2504 22.23C48.283 22.6285 49.4514 22.8278 50.7557 22.8278C52.2412 22.8278 53.5364 22.5832 54.6414 22.0941C55.7646 21.5869 56.6341 20.8985 57.25 20.029C57.884 19.1413 58.2011 18.1178 58.2011 16.9584C58.2011 15.4186 57.6667 14.1868 56.5979 13.2629C55.5291 12.3391 54.0255 11.5963 52.0872 11.0348L50.484 10.5728C49.1616 10.1924 48.1471 9.77575 47.4406 9.32287C46.7341 8.86999 46.3809 8.26313 46.3809 7.50229C46.3809 6.61465 46.7975 5.90816 47.6308 5.38282C48.4641 4.83936 49.5148 4.56763 50.7829 4.56763C52.0147 4.56763 53.0292 4.82124 53.8262 5.32847C54.6233 5.83569 55.0762 6.4969 55.1849 7.31208L54.3969 7.52947C54.3606 6.89543 54.0074 6.37915 53.3371 5.98062C52.685 5.58208 51.8336 5.38282 50.7829 5.38282C49.7865 5.38282 48.9351 5.57302 48.2286 5.95344C47.5403 6.33386 47.1961 6.83203 47.1961 7.44795C47.1961 8.00952 47.5131 8.4624 48.1471 8.80659C48.7993 9.15078 49.6507 9.47685 50.7014 9.78481L52.2502 10.2467C54.4422 10.8989 56.1178 11.7503 57.2772 12.801C58.4366 13.8336 59.0162 15.2375 59.0162 17.0128C59.0162 18.299 58.663 19.4493 57.9565 20.4637C57.2681 21.4601 56.299 22.239 55.049 22.8006C53.8172 23.3622 52.3861 23.6429 50.7557 23.6429ZM60.0802 13.1271V12.3119H69.0201V13.1271H60.0802ZM63.2323 23.2354V14.9205H60.0802V14.1053H69.0201V14.9205H65.8409V23.2354H65.0257V14.9205H64.0475V23.2354H63.2323ZM70.3687 19.1594V12.3119H71.1839V19.1323C71.1839 20.2916 71.5281 21.1793 72.2165 21.7952C72.923 22.393 73.7563 22.6919 74.7164 22.6919C75.6765 22.6919 76.5007 22.393 77.1891 21.7952C77.8956 21.1793 78.2489 20.2916 78.2489 19.1323V12.3119H79.064V19.1594C79.0459 20.0833 78.8376 20.8713 78.4391 21.5235C78.0586 22.1575 77.5424 22.6466 76.8902 22.9908C76.2381 23.335 75.5135 23.5071 74.7164 23.5071C73.9193 23.5071 73.1857 23.335 72.5154 22.9908C71.8632 22.6466 71.3379 22.1484 70.9394 21.4963C70.559 20.8441 70.3687 20.0652 70.3687 19.1594ZM72.1621 19.1594V12.3119H72.9773V19.1323C72.9773 19.7482 73.1494 20.2011 73.4936 20.4909C73.8378 20.7626 74.2454 20.8985 74.7164 20.8985C75.1874 20.8985 75.595 20.7626 75.9392 20.4909C76.2834 20.2011 76.4555 19.7482 76.4555 19.1323V12.3119H77.2706V19.1594C77.2525 20.0108 76.9899 20.6539 76.4826 21.0887C75.9935 21.5053 75.4048 21.7137 74.7164 21.7137C74.028 21.7137 73.4302 21.4963 72.923 21.0615C72.4158 20.6268 72.1621 19.9927 72.1621 19.1594ZM83.0419 23.2354V12.3119H85.7592C86.9004 12.33 87.9058 12.5746 88.7753 13.0455C89.6449 13.5165 90.3242 14.1596 90.8133 14.9748C91.3205 15.79 91.5741 16.7229 91.5741 17.7736C91.5741 18.8243 91.3205 19.7663 90.8133 20.5996C90.3242 21.4148 89.6358 22.0579 88.7482 22.5289C87.8786 22.9999 86.8823 23.2354 85.7592 23.2354H83.0419ZM81.2485 23.2354V12.3119H82.0637V23.2354H81.2485ZM85.6776 13.1271H83.8571V14.1053H85.7592C86.9548 14.1234 87.9239 14.4676 88.6667 15.1379C89.4094 15.8081 89.7807 16.6867 89.7807 17.7736C89.7807 18.8786 89.4003 19.7663 88.6395 20.4366C87.8968 21.1068 86.9367 21.4419 85.7592 21.4419H83.8571V22.4202H85.6776C86.6921 22.4202 87.5797 22.23 88.3406 21.8495C89.1014 21.451 89.6902 20.8985 90.1068 20.192C90.5416 19.4855 90.759 18.6794 90.759 17.7736C90.759 16.8497 90.5416 16.0436 90.1068 15.3552C89.6902 14.6487 89.1014 14.1053 88.3406 13.7249C87.5797 13.3263 86.6921 13.1271 85.6776 13.1271ZM85.6776 14.9205H83.8571V20.6268H85.6776C86.6921 20.6268 87.4892 20.3731 88.0689 19.8659C88.6667 19.3587 88.9656 18.6613 88.9656 17.7736C88.9656 16.886 88.6667 16.1885 88.0689 15.6813C87.4892 15.1741 86.6921 14.9205 85.6776 14.9205ZM95.275 23.2354V12.3119H96.0901V23.2354H95.275ZM93.4816 23.2354V12.3119H94.2967V23.2354H93.4816ZM108.964 17.7736C108.964 16.8316 108.738 15.9983 108.285 15.2737C107.85 14.531 107.243 13.9423 106.464 13.5075C105.703 13.0727 104.843 12.8553 103.883 12.8553C102.923 12.8553 102.053 13.0727 101.274 13.5075C100.513 13.9423 99.9065 14.531 99.4536 15.2737C99.0189 15.9983 98.8015 16.8316 98.8015 17.7736C98.8015 18.6975 99.0189 19.5308 99.4536 20.2735C99.9065 21.0162 100.513 21.605 101.274 22.0397C102.053 22.4745 102.923 22.6919 103.883 22.6919C104.843 22.6919 105.703 22.4745 106.464 22.0397C107.243 21.605 107.85 21.0162 108.285 20.2735C108.738 19.5308 108.964 18.6975 108.964 17.7736ZM107.171 17.7736C107.171 16.8679 106.854 16.1251 106.22 15.5454C105.604 14.9476 104.825 14.6487 103.883 14.6487C102.941 14.6487 102.153 14.9476 101.519 15.5454C100.903 16.1251 100.595 16.8679 100.595 17.7736C100.595 18.6613 100.903 19.404 101.519 20.0018C102.153 20.5996 102.941 20.8985 103.883 20.8985C104.825 20.8985 105.604 20.5996 106.22 20.0018C106.854 19.404 107.171 18.6613 107.171 17.7736ZM103.883 21.7137C103.104 21.7137 102.406 21.5416 101.79 21.1974C101.175 20.8532 100.685 20.3822 100.323 19.7844C99.9609 19.1866 99.7797 18.5163 99.7797 17.7736C99.7797 17.0309 99.9609 16.3606 100.323 15.7628C100.685 15.165 101.175 14.694 101.79 14.3498C102.406 14.0057 103.104 13.8336 103.883 13.8336C104.662 13.8336 105.359 14.0057 105.975 14.3498C106.591 14.694 107.08 15.165 107.442 15.7628C107.805 16.3606 107.986 17.0309 107.986 17.7736C107.986 18.5163 107.805 19.1866 107.442 19.7844C107.08 20.3822 106.591 20.8532 105.975 21.1974C105.359 21.5416 104.662 21.7137 103.883 21.7137ZM103.883 23.5071C102.778 23.5071 101.781 23.2535 100.894 22.7462C100.006 22.239 99.2996 21.5506 98.7743 20.6811C98.249 19.8116 97.9863 18.8424 97.9863 17.7736C97.9863 16.6867 98.249 15.7175 98.7743 14.8661C99.2996 13.9966 100.006 13.3082 100.894 12.801C101.781 12.2938 102.778 12.0402 103.883 12.0402C104.988 12.0402 105.984 12.2938 106.872 12.801C107.759 13.3082 108.466 13.9966 108.991 14.8661C109.517 15.7175 109.779 16.6867 109.779 17.7736C109.779 18.8424 109.517 19.8116 108.991 20.6811C108.466 21.5506 107.759 22.239 106.872 22.7462C105.984 23.2535 104.988 23.5071 103.883 23.5071Z" fill="white"/>
</svg>
